<?xml version="1.0" encoding="UTF-8"?>
<svg width="156px" height="48px" viewBox="0 0 156 48" version="1.1" xmlns="http://www.w3.org/2000/svg" xmlns:xlink="http://www.w3.org/1999/xlink">
    <!-- Generator: Sketch 53.2 (72643) - https://sketchapp.com -->
    <title>logo</title>
    <desc>Created with Sketch.</desc>
    <g id="首页" stroke="none" stroke-width="1" fill="none" fill-rule="evenodd">
        <g transform="translate(-40.000000, -16.000000)" id="Group-3">
            <g>
                <g id="logo" transform="translate(40.000000, 16.000000)">
                    <path d="M3.44972651,15.9274097 L33.7248633,11.7225296 C34.8189308,11.5705758 35.8290307,12.3343098 35.9809845,13.4283774 C35.9936464,13.5195428 36,13.6114736 36,13.7035141 L36,34.923698 C36,36.9202124 34.5278056,38.6110098 32.5502735,38.8856671 L17.9972917,40.9069145 L8,48 L7.99515602,42.2961 L2.27513674,43.0905472 C1.18106919,43.242501 0.170969281,42.4787669 0.0190154536,41.3846994 C0.00635358661,41.2935339 1.8153022e-12,41.2016032 1.80744308e-12,41.1095626 L-1.77635684e-15,19.8893788 C-1.72253918e-13,17.8928644 1.4721944,16.2020669 3.44972651,15.9274097 Z" id="Rectangle" fill="#0095FF"></path>
                    <path d="M17.4467426,4.94953767 L47.7233713,0.72120406 C48.8173241,0.568426239 49.8279989,1.3313993 49.9807768,2.4253521 C49.9935768,2.51700587 50,2.60943755 50,2.70198082 L50,27.0889088 C50,29.0842783 48.5294482,30.7744741 46.5532574,31.0504623 L16.2766287,35.2787959 C15.1826759,35.4315738 14.1720011,34.6686007 14.0192232,33.5746479 C14.0064232,33.4829941 14,33.3905624 14,33.2980192 L14,8.91109118 C14,6.91572166 15.4705518,5.22552593 17.4467426,4.94953767 Z" id="Rectangle-Copy-13" fill="#00D5E0"></path>
                    <path d="M14,14.4620939 L33.7248633,11.7225296 C34.8189308,11.5705758 35.8290307,12.3343098 35.9809845,13.4283774 C35.9936464,13.5195428 36,13.6114736 36,13.7035141 L36,32.5242953 L16.2766287,35.2787959 C15.1826759,35.4315738 14.1720011,34.6686007 14.0192232,33.5746479 C14.0064232,33.4829941 14,33.3905624 14,33.2980192 L14,14.4620939 Z" id="Combined-Shape" fill="#003BDE"></path>
                    <path d="M62.1246833,13.0225407 L62.1246833,29.2560497 L60.1406123,29.2560497 L60.1406123,15.6997273 L57.5929047,19.1374513 L56,17.9522039 L61.8934022,10 L63.4863069,11.1852474 L62.1246833,13.0225407 Z M148.54188,17.2859511 C148.519807,17.8998208 148.476785,18.4852746 148.412799,19.0418404 L154.964038,19.0418404 L154.964038,21.0298914 L148.065526,21.0298914 C147.160916,24.7414227 145.012559,26.7049742 141.613414,26.7049742 L141.613414,24.7169232 C143.821643,24.7169232 145.295472,23.5424602 146.029556,21.0298914 L141.613414,21.0298914 L141.613414,19.0418404 L146.423584,19.0418404 C146.490482,18.4979077 146.535264,17.9128925 146.557902,17.2859511 L141.471358,17.2859511 L143.471814,13.2605459 L145.247872,14.1467157 L144.675782,15.2979001 L152.753179,15.2979001 L152.753179,17.2859511 L148.54188,17.2859511 Z M114.757418,12.5806747 L114.757418,10.5926237 L116.741489,10.5926237 L116.741489,12.5806747 L119.300479,12.5806747 L119.300479,14.5687257 L112.02551,14.5687257 L112.02551,12.5806747 L114.757418,12.5806747 Z M124.024356,15.2979001 L124.840382,10.4280286 L126.797064,10.7572188 L126.0362,15.2979001 L130.439102,15.2979001 L130.439102,17.2859511 L125.70307,17.2859511 L123.63233,29.6437031 L121.675648,29.314513 L123.691227,17.2859511 L121.738328,17.2859511 L121.738328,15.2979001 L124.024356,15.2979001 Z M116.741489,22.3658219 L116.741489,29.479108 L114.757418,29.479108 L114.757418,22.3874558 C113.304585,21.9715287 112.241059,20.6311335 112.241059,19.0418404 C112.241059,17.1203925 113.795582,15.5627511 115.713183,15.5627511 C117.630785,15.5627511 119.185307,17.1203925 119.185307,19.0418404 C119.185307,20.6045619 118.157047,21.9266386 116.741489,22.3658219 Z M90.1129268,22.2809176 L87.3359685,19.9176354 L88.6203597,18.4023595 L91.1002675,20.512842 C91.9071479,18.8605654 92.5412125,16.9678149 93.0023077,14.8310576 L89.5494369,14.8310576 C88.5666147,16.8441318 87.0519741,18.3692523 85.0126569,19.3782211 L84.1342345,17.5956325 C86.7654208,16.2938317 88.301397,13.953393 88.7711436,10.4598951 L90.7374477,10.7253523 C90.6372301,11.4706692 90.4924061,12.1767796 90.3031473,12.8430066 L95.3958616,12.8430066 L95.1858611,14.0129854 C93.8078115,21.6905342 90.4117924,26.8529279 84.9928358,29.3859112 L84.1540556,27.5842539 C86.5987985,26.4415075 88.5853106,24.6788268 90.1129268,22.2809176 Z M71.3215385,13.0197614 C71.2914914,13.6973123 71.2262715,14.3379587 71.1260934,14.9410071 L77.5066,14.9410071 L77.5066,16.9290581 L70.62171,16.9290581 C69.5541155,19.9222111 67.3041025,21.6062614 63.9143302,21.8432521 L63.7762304,19.8600227 C66.0424787,19.7015815 67.6029164,18.7550757 68.485821,16.9290581 L65.0288512,16.9290581 L65.0288512,14.9410071 L69.1189417,14.9410071 C69.217518,14.428326 69.2852917,13.873802 69.3225424,13.2765307 L66.1470254,13.684423 L65.8947479,11.7125084 L74.5504448,10.6006919 L74.8027223,12.5726065 L71.3215385,13.0197614 Z M72.0863324,19.3664224 L73.316461,17.8065977 C75.0567422,19.184552 76.7980695,19.8576119 78.5616889,19.8576119 L78.5616889,21.8456629 C76.3258954,21.8456629 74.1603612,21.008638 72.0863324,19.3664224 Z M67.4789078,21.5904936 L69.4589148,21.4633146 C69.7173361,25.5027439 69.1867751,28.3032554 67.7449992,29.8830118 L66.2808451,28.5413747 C67.2658309,27.462124 67.7059294,25.1391094 67.4789078,21.5904936 Z M72.5293283,21.5269041 L74.5133992,21.5269041 L74.5133992,29.2121932 L72.5293283,29.2121932 L72.5293283,21.5269041 Z M100.397477,18.5229845 L101.794357,17.1111644 L105.784797,21.0752326 L104.387916,22.4870527 L100.397477,18.5229845 Z M97.5605311,10.5926237 L99.544602,10.5926237 L99.544602,29.479108 L97.5605311,29.479108 L97.5605311,10.5926237 Z M115.713183,17.5508021 C114.891354,17.5508021 114.22513,18.2183627 114.22513,19.0418404 C114.22513,19.8653181 114.891354,20.5328786 115.713183,20.5328786 C116.535012,20.5328786 117.201237,19.8653181 117.201237,19.0418404 C117.201237,18.2183627 116.535012,17.5508021 115.713183,17.5508021 Z M112.719486,23.0040148 L114.476975,23.9266062 L112.237148,28.2104967 L110.479659,27.2879053 L112.719486,23.0040148 Z M118.807588,23.0040148 L121.047415,27.2879053 L119.289926,28.2104967 L117.050099,23.9266062 L118.807588,23.0040148 Z M126.390897,18.5448215 L128.374968,18.5448215 L128.375008,25.0299124 C128.375008,26.6768457 129.707438,28.011949 131.351075,28.011949 L131.351075,30 C128.611666,30 126.390937,27.774816 126.390937,25.0299185 L126.390897,18.5448215 Z M127.713173,12.023672 L129.495205,11.1496264 L130.766739,13.7524811 L128.984707,14.6265267 L127.713173,12.023672 Z M139.135397,12.5806747 L139.135397,26.4970316 C139.135397,27.0460167 139.579546,27.4910571 140.127432,27.4910571 L156,27.4910571 L156,29.479108 L140.127432,29.479108 C138.483774,29.479108 137.151326,28.1439869 137.151326,26.4970316 L137.151326,10.5926237 L156,10.5926237 L156,12.5806747 L139.135397,12.5806747 Z M149.128249,23.3862767 L150.312138,21.7909324 L154.739436,25.0895812 L153.555546,26.6849256 L149.128249,23.3862767 Z" id="Combined-Shape" fill="#34495E" fill-rule="nonzero"></path>
                    <path d="M60.1,34.825 L60.975,35.0625 C60.1375,37.1375 58.7875,38.9625 57.3125,40.1625 C57.1625,39.9875 56.825,39.6875 56.6125,39.5375 C58.1,38.45 59.375,36.725 60.1,34.825 Z M58.3375,39.275 L66.1,39.275 C66.1,39.275 66.1,39.575 66.0875,39.6875 C65.9,43.5125 65.725,44.925 65.2875,45.4125 C65.0375,45.6875 64.775,45.7875 64.35,45.8125 C63.9375,45.8375 63.1625,45.825 62.375,45.775 C62.35,45.525 62.25,45.1875 62.1,44.95 C62.9375,45.025 63.7125,45.0375 64.0125,45.0375 C64.2875,45.0375 64.4125,45 64.55,44.8875 C64.875,44.5625 65.05,43.325 65.2125,40.1 L61.675,40.1 C61.3375,42.575 60.5375,44.8375 57.375,45.9875 C57.275,45.775 57.0375,45.45 56.8625,45.2875 C59.825,44.3 60.525,42.2625 60.8,40.1 L58.3375,40.1 L58.3375,39.275 Z M63.6125,35.1 L64.3625,34.8 C65.1375,36.5 66.6625,38.3875 67.95,39.35 C67.7375,39.5125 67.45,39.825 67.2875,40.05 C65.9875,38.95 64.475,36.9375 63.6125,35.1 Z M80.1625,35.675 L80.1625,36.4 L69.3375,36.4 L69.3375,35.675 L74.4375,35.675 C74.3,35.3375 74.125,34.95 73.9625,34.6375 L74.775,34.475 C74.9875,34.825 75.225,35.3 75.3625,35.675 L80.1625,35.675 Z M71.75,37.875 L71.75,39.075 L77.7875,39.075 L77.7875,37.875 L71.75,37.875 Z M78.65,39.7125 L70.925,39.7125 L70.925,37.25 L78.65,37.25 L78.65,39.7125 Z M80.3,42.7875 L80.3,43.525 L75.175,43.525 L75.175,45.075 C75.175,45.55 75.025,45.75 74.625,45.875 C74.2125,45.9875 73.5125,45.975 72.3875,45.975 C72.3375,45.7625 72.2125,45.4875 72.1,45.275 C72.975,45.3125 73.8,45.3 74.0125,45.2875 C74.25,45.275 74.3125,45.225 74.3125,45.05 L74.3125,43.525 L69.225,43.525 L69.225,42.7875 L74.3125,42.7875 L74.3125,42 C75.2,41.8125 76.1875,41.525 77,41.2 L70.3875,41.2 L70.3875,40.5125 L78.125,40.5125 L78.125,40.5 L78.3375,40.5 L78.525,40.4625 L79.0875,40.9375 C78.025,41.55 76.55,42.0625 75.175,42.4 L75.175,42.7875 L80.3,42.7875 Z M84.3875,34.6 L85.175,34.8375 C84.8125,35.75 84.375,36.675 83.875,37.525 L83.875,45.925 L83.075,45.925 L83.075,38.7625 C82.65,39.375 82.1875,39.9375 81.7375,40.425 C81.65,40.225 81.4125,39.8 81.25,39.6125 C82.5,38.4 83.675,36.525 84.3875,34.6 Z M86.675,39.8375 L87.475,40 C87.075,41.65 86.4,43.2125 85.6375,44.2625 C85.475,44.15 85.125,43.9125 84.925,43.8 C85.7125,42.8375 86.3125,41.3375 86.675,39.8375 Z M92,37.7625 L89.5,37.7625 L89.5,44.9125 C89.5,45.4 89.4,45.65 89.0875,45.7875 C88.75,45.9375 88.2375,45.9625 87.4625,45.9625 C87.4125,45.7125 87.2875,45.3625 87.1625,45.1125 C87.7625,45.1375 88.3125,45.125 88.475,45.125 C88.6375,45.125 88.6875,45.075 88.6875,44.9125 L88.6875,37.7625 L86.7,37.7625 C86.3375,38.6125 85.925,39.35 85.4875,39.9625 C85.3375,39.8375 85.0125,39.5625 84.8125,39.4375 C85.75,38.2625 86.4375,36.4625 86.85,34.6125 L87.6625,34.8 C87.475,35.5375 87.2625,36.2875 87,36.9875 L92.225,36.9875 L92.3625,36.95 L92.9125,37.0875 C92.7625,37.9875 92.5375,39.05 92.3625,39.7 L91.6625,39.5625 C91.7625,39.1 91.8875,38.4125 92,37.7625 Z M90.4875,39.9875 L91.225,39.75 C91.95,41.075 92.6125,42.8 92.825,43.95 L92.0375,44.2125 C91.825,43.075 91.1875,41.3125 90.4875,39.9875 Z M98.15,40.025 L98.15,37.3 L95.4125,37.3 L95.4125,40.025 L98.15,40.025 Z M95.4125,43.875 L98.15,43.875 L98.15,40.775 L95.4125,40.775 L95.4125,43.875 Z M96.575,34.525 L97.4625,34.7 C97.2625,35.3125 97.025,36.0125 96.8,36.55 L98.9125,36.55 L98.9125,44.625 L95.4125,44.625 L95.4125,45.625 L94.65,45.625 L94.65,36.55 L96.0375,36.55 C96.25,35.9625 96.475,35.1125 96.575,34.525 Z M105.0375,36.525 L105.0375,36.9625 C104.8375,42.7 104.6625,44.6125 104.1625,45.2125 C103.9125,45.55 103.625,45.65 103.2125,45.6875 C102.7875,45.725 102.075,45.7 101.375,45.6625 C101.35,45.4125 101.25,45.075 101.1,44.85 C101.9125,44.925 102.6625,44.925 102.9375,44.925 C103.1875,44.925 103.3375,44.9 103.4625,44.7375 C103.875,44.3 104.075,42.375 104.2375,37.3 L100.9625,37.3 C100.6125,38.15 100.2125,38.925 99.7875,39.525 C99.6375,39.4 99.275,39.175 99.0875,39.0625 C99.9375,37.95 100.6125,36.225 101,34.5 L101.8,34.675 C101.6375,35.3 101.4625,35.925 101.25,36.525 L105.0375,36.525 Z M103.075,42.15 L102.375,42.5875 C101.9875,41.825 101.1375,40.5875 100.4375,39.6875 L101.075,39.3125 C101.8,40.2 102.675,41.4 103.075,42.15 Z M117.45,36.9625 L116.85,37.3375 C116.625,36.8375 116.1,36.05 115.5875,35.5 L116.1625,35.175 C116.675,35.7125 117.2125,36.4625 117.45,36.9625 Z M112.4,36.125 L112.4,36.8625 L106.725,36.8625 L106.725,36.125 L109.45,36.125 C109.3,35.6875 109.075,35.15 108.8625,34.7125 L109.6125,34.55 C109.875,35.0375 110.175,35.675 110.3125,36.125 L112.4,36.125 Z M107.875,41.6 L108.575,41.75 C108.3,42.85 107.825,43.9875 107.3125,44.7125 C107.175,44.6125 106.875,44.4125 106.7,44.3125 C107.225,43.6125 107.6375,42.6 107.875,41.6 Z M108.1625,38.6125 L108.1625,40.1875 L111.1,40.1875 L111.1,38.6125 L108.1625,38.6125 Z M111.8625,40.875 L110.0625,40.875 L110.0625,45.025 C110.0625,45.425 109.9875,45.6125 109.7125,45.7375 C109.45,45.85 109.05,45.875 108.4,45.8625 C108.375,45.6625 108.25,45.375 108.15,45.175 C108.6,45.1875 109.0125,45.1875 109.1375,45.175 C109.275,45.175 109.3125,45.1375 109.3125,45.0125 L109.3125,40.875 L107.425,40.875 L107.425,37.925 L111.8625,37.925 L111.8625,40.875 Z M112.15,43.6375 L111.525,43.925 C111.3875,43.325 111,42.4125 110.625,41.725 L111.225,41.45 C111.625,42.1375 112.025,43.0375 112.15,43.6375 Z M117.8625,38.55 L114.9,38.55 C114.6625,41.3875 114,44.225 112.075,45.95 C111.9375,45.7875 111.675,45.5875 111.475,45.4625 C113.3,43.8875 113.925,41.2125 114.1375,38.55 L112.5125,38.55 L112.5125,37.8 L114.2,37.8 C114.2625,36.6875 114.2625,35.6 114.275,34.5875 L115.05,34.5875 C115.0375,35.6 115.0375,36.6875 114.9625,37.8 L117.8625,37.8 L117.8625,38.55 Z M116.175,44.9875 L116.7625,44.9875 C116.925,44.9875 117.0875,44.975 117.1625,44.9375 C117.25,44.8875 117.3125,44.7875 117.35,44.5875 C117.3875,44.375 117.4,43.8875 117.4125,43.25 C117.575,43.4 117.85,43.525 118.0625,43.5875 C118.05,44.15 118,44.8 117.9375,45.0375 C117.8625,45.2875 117.7375,45.4375 117.55,45.5125 C117.375,45.6125 117.075,45.6375 116.85,45.6375 L116.05,45.6375 C115.7875,45.6375 115.475,45.5875 115.3,45.45 C115.0875,45.3 115.0125,45.1 115.0125,44.3375 L115.0125,39.6125 L115.75,39.6125 L115.75,44.4375 C115.75,44.725 115.775,44.875 115.8625,44.925 C115.95,44.975 116.05,44.9875 116.175,44.9875 Z M120.5625,44.6625 L130.375,44.6625 L130.375,45.4625 L119.7375,45.4625 L119.7375,35.2625 L130.0875,35.2625 L130.0875,36.05 L120.5625,36.05 L120.5625,44.6625 Z M129.8375,40.9375 L125.8125,40.9375 C125.8,41.0125 125.7875,41.1 125.7625,41.175 L125.875,41.075 C127.05,41.9125 128.5375,43.1375 129.275,43.9375 L128.6875,44.5 C128.05,43.75 126.7125,42.5875 125.5625,41.725 C125.1125,42.725 124.0875,43.7125 121.875,44.4375 C121.7625,44.2625 121.525,43.9625 121.3625,43.8 C123.9,43.05 124.725,41.9625 124.975,40.9375 L121.3,40.9375 L121.3,40.2 L125.075,40.2 C125.0875,40.1 125.0875,40 125.0875,39.9 L125.0875,38.3125 L123.05,38.3125 C122.725,38.7375 122.375,39.1375 122,39.4375 C121.8625,39.325 121.5125,39.1125 121.325,39.0125 C122.1375,38.3625 122.8625,37.3875 123.25,36.35 L124.0375,36.5375 C123.9,36.8875 123.725,37.25 123.5375,37.575 L129.25,37.575 L129.25,38.3125 L125.9125,38.3125 L125.9125,39.9 C125.9125,40 125.9125,40.1 125.9,40.2 L129.8375,40.2 L129.8375,40.9375 Z M143.0125,39.6625 L142.5375,40.35 C141.8125,39.8625 140.4375,39.15 139.2625,38.6375 C138.225,39.375 137.0875,39.95 135.975,40.375 C135.8625,40.175 135.6375,39.8625 135.475,39.7 C137.45,39.025 139.6125,37.6625 140.7625,36 L136.2875,36 L136.2875,35.225 L141.3,35.225 L141.4625,35.1875 L142.05,35.5125 C141.55,36.5125 140.7875,37.3875 139.9125,38.125 C141.0375,38.6 142.3125,39.2125 143.0125,39.6625 Z M133.1375,41.5125 L135.7125,41.0375 C135.7,41.25 135.7,41.6 135.7125,41.775 C132.5125,42.425 132.1,42.525 131.85,42.675 C131.8,42.5 131.6625,42.1 131.5625,41.8875 C131.8375,41.825 132.1375,41.5125 132.5375,41.0625 C132.7875,40.8 133.325,40.1375 133.925,39.3125 C132.25,39.5375 131.9375,39.6125 131.7625,39.7 C131.7125,39.525 131.5875,39.1125 131.475,38.8875 C131.7125,38.85 131.925,38.55 132.2125,38.125 C132.5,37.7 133.4625,36.0875 134.0125,34.5625 L134.8,34.925 C134.2125,36.275 133.4375,37.65 132.6625,38.7375 L134.4625,38.5375 C134.75,38.1125 135.0375,37.6375 135.2875,37.1875 L136.025,37.6375 C135.15,39.025 134.15,40.4 133.1375,41.5125 Z M135.7125,43.3375 L135.8,44.0625 C134.3375,44.45 132.8375,44.8375 131.725,45.1375 L131.55,44.3 C132.5875,44.0875 134.1625,43.7 135.7125,43.3375 Z M139.725,41.6375 L139.725,44.8125 L142.9625,44.8125 L142.9625,45.5875 L135.6375,45.5875 L135.6375,44.8125 L138.9,44.8125 L138.9,41.6375 L136.4,41.6375 L136.4,40.8625 L142.375,40.8625 L142.375,41.6375 L139.725,41.6375 Z M150.4625,38.7625 L154.6125,38.7625 C154.6125,38.7625 154.6125,39.05 154.6,39.1625 C154.375,43.3375 154.1875,44.825 153.7125,45.3375 C153.475,45.625 153.2125,45.7125 152.7875,45.75 C152.3875,45.775 151.6375,45.7625 150.8875,45.7125 C150.8625,45.4625 150.775,45.125 150.6125,44.8875 C151.4125,44.9625 152.1875,44.975 152.475,44.975 C152.725,44.975 152.875,44.95 153,44.8125 C153.3625,44.475 153.5625,43.0875 153.75,39.55 L150.4,39.55 C150.125,42.325 149.3375,44.575 146.7125,45.8875 C146.6125,45.7 146.3625,45.425 146.1625,45.2875 C148.6125,44.1125 149.325,42.075 149.5625,39.55 L146.6875,39.55 L146.6875,38.7625 L149.6125,38.7625 C149.6625,38.0875 149.675,37.375 149.6875,36.65 L150.55,36.65 C150.525,37.375 150.5,38.075 150.4625,38.7625 Z M155.2875,35.1875 L155.2875,35.975 L145.85,35.975 L145.85,39.075 C145.85,41.0625 145.7125,43.9375 144.725,45.9 C144.5875,45.75 144.2,45.5125 144.0125,45.4375 C144.925,43.5625 145.0125,40.975 145.0125,39.075 L145.0125,35.1875 L155.2875,35.1875 Z" id="分享你的就医经历" fill="#BDC0C4" fill-rule="nonzero"></path>
                </g>
            </g>
        </g>
    </g>
</svg>